<svg width="145" height="40" viewBox="0 0 145 40" fill="none" xmlns="http://www.w3.org/2000/svg">
<path d="M38.2915 13.1872H40.6859L44.2115 23.1912L47.737 13.1872H50.1314L45.173 26.8128H43.2499L38.2915 13.1872ZM37 13.1872H39.385L39.8186 22.9385V26.8128H37V13.1872ZM49.0379 13.1872H51.4323V26.8128H48.6043V22.9385L49.0379 13.1872Z" fill="#94A9CB"/>
<path d="M65.1859 19.6818V20.3275C65.1859 21.3632 65.0445 22.2928 64.7617 23.1163C64.4789 23.9398 64.0799 24.6417 63.5645 25.2219C63.0492 25.7959 62.4333 26.2357 61.7169 26.5414C61.0067 26.8471 60.218 27 59.3508 27C58.4898 27 57.7011 26.8471 56.9847 26.5414C56.2745 26.2357 55.6586 25.7959 55.137 25.2219C54.6154 24.6417 54.2101 23.9398 53.921 23.1163C53.6382 22.2928 53.4968 21.3632 53.4968 20.3275V19.6818C53.4968 18.6399 53.6382 17.7103 53.921 16.893C54.2038 16.0695 54.6029 15.3676 55.1182 14.7874C55.6398 14.2072 56.2557 13.7643 56.9658 13.4586C57.6823 13.1529 58.471 13 59.3319 13C60.1992 13 60.9879 13.1529 61.698 13.4586C62.4145 13.7643 63.0303 14.2072 63.5457 14.7874C64.0673 15.3676 64.4695 16.0695 64.7523 16.893C65.0414 17.7103 65.1859 18.6399 65.1859 19.6818ZM62.3296 20.3275V19.6631C62.3296 18.9394 62.2636 18.303 62.1317 17.754C61.9997 17.205 61.8049 16.7433 61.5472 16.369C61.2895 15.9947 60.9753 15.7139 60.6045 15.5267C60.2338 15.3333 59.8095 15.2366 59.3319 15.2366C58.8543 15.2366 58.4301 15.3333 58.0593 15.5267C57.6948 15.7139 57.3837 15.9947 57.1261 16.369C56.8747 16.7433 56.683 17.205 56.551 17.754C56.4191 18.303 56.3531 18.9394 56.3531 19.6631V20.3275C56.3531 21.045 56.4191 21.6814 56.551 22.2366C56.683 22.7857 56.8778 23.2504 57.1355 23.631C57.3932 24.0053 57.7074 24.2892 58.0782 24.4826C58.449 24.676 58.8732 24.7727 59.3508 24.7727C59.8284 24.7727 60.2526 24.676 60.6234 24.4826C60.9942 24.2892 61.3053 24.0053 61.5566 23.631C61.808 23.2504 61.9997 22.7857 62.1317 22.2366C62.2636 21.6814 62.3296 21.045 62.3296 20.3275Z" fill="#94A9CB"/>
<path d="M72.5953 20.8329H69.0697L69.0509 18.9051H72.0109C72.5325 18.9051 72.9598 18.8396 73.2929 18.7086C73.626 18.5713 73.8742 18.3748 74.0376 18.119C74.2073 17.857 74.2922 17.5388 74.2922 17.1644C74.2922 16.7402 74.2105 16.3971 74.0471 16.135C73.8899 15.873 73.6417 15.6827 73.3023 15.5642C72.9693 15.4456 72.5388 15.3864 72.0109 15.3864H70.0501V26.8128H67.2221V13.1872H72.0109C72.809 13.1872 73.5223 13.262 74.1508 13.4118C74.7855 13.5615 75.3228 13.7892 75.7627 14.0949C76.2026 14.4006 76.5389 14.7874 76.7714 15.2553C77.0039 15.717 77.1202 16.266 77.1202 16.9024C77.1202 17.4639 76.9913 17.9817 76.7337 18.4559C76.4823 18.93 76.0832 19.3168 75.5365 19.6163C74.996 19.9158 74.289 20.0811 73.4155 20.1123L72.5953 20.8329ZM72.4728 26.8128H68.2968L69.3997 24.623H72.4728C72.9693 24.623 73.3746 24.545 73.6888 24.389C74.0031 24.2268 74.2356 24.0085 74.3864 23.734C74.5372 23.4594 74.6127 23.1444 74.6127 22.7888C74.6127 22.3895 74.5435 22.0432 74.4053 21.75C74.2733 21.4568 74.0596 21.2322 73.7643 21.0762C73.4689 20.914 73.0792 20.8329 72.5953 20.8329H69.871L69.8899 18.9051H73.2835L73.9339 19.6631C74.7698 19.6506 75.4422 19.7972 75.9513 20.1029C76.4666 20.4024 76.8405 20.7923 77.073 21.2727C77.3118 21.7531 77.4313 22.2678 77.4313 22.8168C77.4313 23.6903 77.2396 24.4265 76.8562 25.0254C76.4729 25.6181 75.9104 26.0642 75.1688 26.3636C74.4336 26.6631 73.5349 26.8128 72.4728 26.8128Z" fill="#94A9CB"/>
<path d="M82.5594 13.1872V26.8128H79.7408V13.1872H82.5594Z" fill="#94A9CB"/>
<path d="M94.0317 24.623V26.8128H87.1219V24.623H94.0317ZM88.0363 13.1872V26.8128H85.2083V13.1872H88.0363Z" fill="#94A9CB"/>
<path d="M104.863 24.623V26.8128H97.5573V24.623H104.863ZM98.4811 13.1872V26.8128H95.6531V13.1872H98.4811ZM103.911 18.7366V20.8703H97.5573V18.7366H103.911ZM104.854 13.1872V15.3864H97.5573V13.1872H104.854Z" fill="#94A9CB"/>
<path d="M116.665 21.9559H113.168V19.766H116.665C117.206 19.766 117.646 19.6787 117.985 19.504C118.324 19.3231 118.573 19.0735 118.73 18.7553C118.887 18.4372 118.965 18.0784 118.965 17.6791C118.965 17.2736 118.887 16.8962 118.73 16.5468C118.573 16.1974 118.324 15.9167 117.985 15.7045C117.646 15.4924 117.206 15.3864 116.665 15.3864H114.148V26.8128H111.32V13.1872H116.665C117.74 13.1872 118.661 13.3806 119.427 13.7674C120.2 14.148 120.791 14.6751 121.2 15.3489C121.608 16.0227 121.812 16.7932 121.812 17.6604C121.812 18.5401 121.608 19.3012 121.2 19.9439C120.791 20.5865 120.2 21.0824 119.427 21.4318C118.661 21.7812 117.74 21.9559 116.665 21.9559Z" fill="#94A9CB"/>
<path d="M127.779 15.5174L124.046 26.8128H121.039L126.139 13.1872H128.053L127.779 15.5174ZM130.881 26.8128L127.138 15.5174L126.837 13.1872H128.769L133.897 26.8128H130.881ZM130.711 21.7406V23.9398H123.462V21.7406H130.711Z" fill="#94A9CB"/>
<path d="M135.811 13.1872L138.677 19.4011L141.542 13.1872H144.625L140.11 21.8529V26.8128H137.244V21.8529L132.719 13.1872H135.811Z" fill="#94A9CB"/>
<path fill-rule="evenodd" clip-rule="evenodd" d="M4.375 0C1.95875 0 0 1.95875 0 4.375V35.625C0 38.0412 1.95875 40 4.375 40H25.625C28.0413 40 30 38.0412 30 35.625V4.375C30 1.95876 28.0413 0 25.625 0H4.375ZM3.75 4.375C3.75 4.02983 4.02983 3.75 4.375 3.75H25.625C25.9702 3.75 26.25 4.02983 26.25 4.375V35.625C26.25 35.9702 25.9702 36.25 25.625 36.25H4.375C4.02983 36.25 3.75 35.9702 3.75 35.625V4.375ZM15 32.5C16.3807 32.5 17.5 31.3808 17.5 30C17.5 28.6192 16.3807 27.5 15 27.5C13.6193 27.5 12.5 28.6192 12.5 30C12.5 31.3808 13.6193 32.5 15 32.5Z" fill="#CAD3E1"/>
<path d="M19.9375 22H11.0252V19.9376H19.9291L19.9375 22ZM17.4717 16.8793H11V14.8786H17.4717V16.8793ZM14.7702 12.8427L14.9806 18.1749C14.9862 18.7566 14.8712 19.256 14.6356 19.6732C14.4 20.0845 13.996 20.4224 13.4237 20.6868L11.8332 19.9376C12.0071 19.8906 12.1361 19.7849 12.2203 19.6203C12.31 19.4499 12.3662 19.2472 12.3886 19.0122C12.411 18.7772 12.4223 18.5451 12.4223 18.3159L12.2624 12.8427C12.2624 12.0319 12.4195 11.3415 12.7336 10.7715C13.0534 10.1957 13.4967 9.75797 14.0633 9.45831C14.6356 9.15277 15.3004 9 16.0579 9C16.877 9 17.5699 9.15277 18.1365 9.45831C18.7088 9.76384 19.1408 10.1898 19.4326 10.7363C19.7299 11.2827 19.8786 11.9202 19.8786 12.6488H17.4801C17.4801 12.2551 17.4156 11.9437 17.2865 11.7146C17.1575 11.4795 16.9864 11.3121 16.7732 11.2122C16.56 11.1064 16.3243 11.0536 16.0663 11.0536C15.8138 11.0536 15.5894 11.1211 15.393 11.2563C15.2023 11.3914 15.0508 11.5912 14.9386 11.8556C14.8263 12.12 14.7702 12.449 14.7702 12.8427Z" fill="#94A9CB"/>
</svg>
