<svg width="166" height="26" viewBox="0 0 166 26" fill="none" xmlns="http://www.w3.org/2000/svg">
<path d="M1.70166 17.963V15.6907H3.0298C3.96794 15.6907 4.38957 16.1111 4.38957 16.8318C4.38957 17.5325 3.96794 17.963 3.0298 17.963H1.70166ZM5.62285 16.8318C5.62285 15.7007 4.76904 14.7598 3.0298 14.7598H0.5V21.7167H1.70166V18.8939H3.0298C4.93769 18.8939 5.62285 17.8228 5.62285 16.8318Z" fill="#94A9CB"/>
<path d="M12.3029 18.954C12.3029 17.2222 10.9958 16.1111 9.34088 16.1111C7.68597 16.1111 6.37891 17.2222 6.37891 18.954C6.37891 20.6857 7.63327 21.8068 9.28818 21.8068C10.9536 21.8068 12.3029 20.6857 12.3029 18.954ZM7.60164 18.954C7.60164 17.7027 8.41329 17.1021 9.3198 17.1021C10.2158 17.1021 11.0696 17.7027 11.0696 18.954C11.0696 20.2052 10.1841 20.8158 9.28818 20.8158C8.38167 20.8158 7.60164 20.2052 7.60164 18.954Z" fill="#94A9CB"/>
<path d="M14.6186 21.7167H15.8835L17.0536 17.6427L18.2236 21.7167H19.4885L21.291 16.2012H20.1104L18.9088 20.6156L17.7282 16.2012H16.4738L15.2405 20.6357L14.0283 16.2012H12.8056L14.6186 21.7167Z" fill="#94A9CB"/>
<path d="M24.6345 17.0721C25.5305 17.0721 26.2367 17.6126 26.2578 18.4635H23.0428C23.1693 17.5926 23.8228 17.0721 24.6345 17.0721ZM27.354 20.0751H26.0575C25.8361 20.5055 25.425 20.8459 24.6872 20.8459C23.8018 20.8459 23.1166 20.2953 23.0323 19.3844H27.47C27.5016 19.1942 27.5121 19.014 27.5121 18.8238C27.5121 17.2022 26.3421 16.1111 24.6872 16.1111C22.969 16.1111 21.7885 17.2222 21.7885 18.954C21.7885 20.6857 23.0217 21.8068 24.6872 21.8068C26.1102 21.8068 27.0273 21.0361 27.354 20.0751Z" fill="#94A9CB"/>
<path d="M29.8963 18.8138C29.8963 17.6427 30.4445 17.2923 31.3299 17.2923H31.6356V16.1111C30.8134 16.1111 30.2336 16.4515 29.8963 17.002V16.2012H28.6947V21.7167H29.8963V18.8138Z" fill="#94A9CB"/>
<path d="M35.1856 17.0721C36.0816 17.0721 36.7878 17.6126 36.8089 18.4635H33.594C33.7204 17.5926 34.374 17.0721 35.1856 17.0721ZM37.9052 20.0751H36.6086C36.3873 20.5055 35.9762 20.8459 35.2383 20.8459C34.3529 20.8459 33.6677 20.2953 33.5834 19.3844H38.0211C38.0527 19.1942 38.0633 19.014 38.0633 18.8238C38.0633 17.2022 36.8932 16.1111 35.2383 16.1111C33.5202 16.1111 32.3396 17.2222 32.3396 18.954C32.3396 20.6857 33.5729 21.8068 35.2383 21.8068C36.6613 21.8068 37.5784 21.0361 37.9052 20.0751Z" fill="#94A9CB"/>
<path d="M38.8453 18.934C38.8453 20.6357 40.0575 21.8068 41.5859 21.8068C42.5346 21.8068 43.2303 21.3864 43.5992 20.8859V21.7167H44.8114V14.3093H43.5992V16.972C43.1565 16.4515 42.3554 16.1111 41.5964 16.1111C40.0575 16.1111 38.8453 17.2322 38.8453 18.934ZM43.5992 18.954C43.5992 20.1452 42.7454 20.8158 41.8389 20.8158C40.9429 20.8158 40.0785 20.1251 40.0785 18.934C40.0785 17.7428 40.9429 17.1021 41.8389 17.1021C42.7454 17.1021 43.5992 17.7728 43.5992 18.954Z" fill="#94A9CB"/>
<path d="M50.3295 17.022V14.3093H49.1279V21.7167H50.3295V20.9159C50.709 21.3964 51.3941 21.8068 52.3534 21.8068C53.8818 21.8068 55.0834 20.6357 55.0834 18.934C55.0834 17.2322 53.8923 16.1111 52.3534 16.1111C51.4363 16.1111 50.709 16.5215 50.3295 17.022ZM53.8607 18.934C53.8607 20.1251 52.9963 20.8158 52.0898 20.8158C51.1939 20.8158 50.3295 20.1452 50.3295 18.954C50.3295 17.7728 51.1939 17.1021 52.0898 17.1021C52.9963 17.1021 53.8607 17.7428 53.8607 18.934Z" fill="#94A9CB"/>
<path d="M58.5591 20.4054L56.9253 16.2012H55.5866L57.874 21.6266L56.6934 24.3093H57.9372L61.5 16.2012H60.2562L58.5591 20.4054Z" fill="#94A9CB"/>
<g opacity="0.8">
<path d="M74.6577 25.7853C70.8377 25.7853 67.6954 22.7046 67.6954 18.8846L67.6338 11.8607C67.6338 10.6285 68.6196 9.70428 69.7902 9.64267L79.2786 9.58105C80.5109 9.58105 81.4351 10.5669 81.4967 11.7375V18.823C81.5583 22.5814 78.5393 25.7237 74.6577 25.7853C74.7193 25.7853 74.6577 25.7853 74.6577 25.7853Z" fill="#BDC8DA"/>
<path d="M88.8284 7.62427C88.8284 11.7523 85.5013 15.0794 81.4348 15.0794L74.6574 15.1411L74.5958 2.51039C74.5958 1.27813 75.5816 0.353939 76.7522 0.292326L81.4348 0.230713C85.4397 0.292326 88.7668 3.55781 88.8284 7.62427Z" fill="#BDC8DA"/>
<path d="M98.062 18.9289C98.062 19.545 97.9388 20.2227 97.6307 20.7773C97.3843 21.2702 96.953 21.6398 96.3985 21.8863C95.844 22.1327 95.2278 22.256 94.6117 22.256C93.9956 22.256 93.3794 22.1327 92.8249 21.8863C92.332 21.6398 91.9007 21.2702 91.5927 20.7773C91.2846 20.2227 91.1614 19.6066 91.1614 18.9289V14.123H92.7633V18.8672C92.7017 19.3602 92.8865 19.9147 93.2562 20.2843C94.0572 20.9005 95.1662 20.9005 95.9672 20.2843C96.3369 19.9147 96.5217 19.4218 96.4601 18.8672V14.123H98.062V18.9289Z" fill="#94A9CB"/>
<path d="M106.256 22.1322H104.778L100.711 16.7719V22.1322H99.1093V14.1226H100.588L104.654 19.4829V14.1226H106.256V22.1322Z" fill="#94A9CB"/>
<path d="M108.967 22.1322H107.365V14.1226H108.967V22.1322Z" fill="#94A9CB"/>
<path d="M111.74 19.1749V22.1323H110.138V14.1226H113.403C114.204 14.061 114.944 14.3074 115.56 14.8003C116.545 15.8477 116.545 17.5113 115.56 18.4971C114.944 18.99 114.143 19.2365 113.403 19.1749H111.74ZM111.74 15.6013V17.7578H113.403C114.266 17.7578 114.759 17.3881 114.759 16.7103C114.759 16.0326 114.327 15.6629 113.403 15.6629L111.74 15.6013Z" fill="#94A9CB"/>
<path d="M122.152 22.1323H120.674V21.5162C120.242 22.0091 119.626 22.3172 119.01 22.2555C118.271 22.2555 117.593 21.9475 117.1 21.393C116.607 20.8384 116.299 20.0991 116.361 19.2981C116.361 18.5588 116.607 17.7578 117.1 17.2033C117.593 16.6488 118.271 16.3407 119.01 16.3407C119.626 16.3407 120.304 16.5872 120.674 17.0801V16.4639H122.152V22.1323ZM119.318 17.8194C118.948 17.8194 118.517 17.9426 118.271 18.2507C117.778 18.8668 117.778 19.791 118.271 20.4688C118.517 20.7768 118.948 20.9001 119.318 20.9001C119.688 20.9001 120.119 20.7152 120.366 20.4688C120.858 19.8526 120.858 18.9284 120.366 18.2507C120.119 18.0042 119.688 17.8194 119.318 17.8194Z" fill="#94A9CB"/>
<path d="M128.498 22.1323H127.02V21.5162C126.588 22.0091 125.972 22.3172 125.356 22.2555C124.617 22.2555 123.939 21.9475 123.446 21.393C122.953 20.8384 122.645 20.0991 122.707 19.2981C122.707 18.5588 122.953 17.7578 123.446 17.2033C123.939 16.6488 124.617 16.3407 125.356 16.3407C125.972 16.3407 126.65 16.5872 127.02 17.0801V16.4639H128.498V22.1323ZM125.664 17.8194C125.295 17.8194 124.863 17.9426 124.617 18.2507C124.124 18.8668 124.124 19.791 124.617 20.4688C124.863 20.7768 125.295 20.9001 125.664 20.9001C126.034 20.9001 126.465 20.7152 126.712 20.4688C127.205 19.8526 127.205 18.9284 126.712 18.2507C126.404 18.0042 126.034 17.8194 125.664 17.8194Z" fill="#94A9CB"/>
<path d="M134.968 16.1557C134.29 15.7244 133.489 15.478 132.688 15.478C132.319 15.478 131.949 15.5396 131.579 15.7244C131.333 15.8477 131.148 16.1557 131.148 16.4022C131.148 16.5254 131.209 16.6486 131.271 16.7719C131.394 16.8951 131.518 16.9567 131.641 17.0183C131.826 17.0799 132.01 17.1415 132.134 17.2031C132.319 17.2648 132.503 17.2648 132.811 17.3264L133.243 17.388C134.968 17.6344 135.83 18.4354 135.83 19.6061C135.83 19.9757 135.769 20.407 135.584 20.7767C135.399 21.0848 135.153 21.3928 134.845 21.5777C134.537 21.7625 134.167 21.9473 133.797 22.0706C133.366 22.1938 132.996 22.2554 132.565 22.2554C131.949 22.2554 131.333 22.1938 130.717 22.009C130.162 21.8241 129.608 21.5777 129.176 21.208L129.977 19.9757C130.347 20.2222 130.717 20.4686 131.148 20.5919C131.579 20.7767 132.072 20.8383 132.565 20.8383C132.935 20.8383 133.366 20.7767 133.674 20.5919C133.92 20.4686 134.105 20.1606 134.105 19.9141C134.105 19.6677 133.982 19.4212 133.736 19.298C133.304 19.1131 132.873 18.9899 132.442 18.9283L131.949 18.8667C131.579 18.8051 131.271 18.7435 130.963 18.6202C130.593 18.497 130.347 18.3122 130.162 18.1273C129.916 17.9425 129.731 17.696 129.669 17.4496C129.546 17.1415 129.484 16.8335 129.484 16.5254C129.484 16.1557 129.546 15.786 129.731 15.4164C129.916 15.1083 130.162 14.8002 130.409 14.6154C130.717 14.3689 131.086 14.2457 131.456 14.1225C131.826 14.0609 132.257 13.9993 132.627 13.9993C133.181 13.9993 133.674 14.0609 134.167 14.1841C134.721 14.3073 135.214 14.5538 135.646 14.8618L134.968 16.1557Z" fill="#94A9CB"/>
<path d="M81.4964 15.1411L74.5958 15.2027L79.9561 23.3356C81.0035 22.1034 81.6196 20.5014 81.558 18.8379L81.4964 15.1411Z" fill="#888E99"/>
</g>
<g opacity="0.8">
<path d="M154.564 15.6952C153.922 15.6952 153.272 15.6696 152.632 15.6185L151.816 15.5531C151.56 15.5326 151.319 15.4269 151.13 15.2531C150.942 15.0793 150.817 14.8474 150.776 14.5943C150.579 13.3922 150.579 12.166 150.776 10.9639C150.817 10.7103 150.942 10.4778 151.131 10.3038C151.32 10.1297 151.562 10.0241 151.818 10.004L152.196 9.97403L152.009 8.29354C151.987 8.09462 151.987 7.89385 152.009 7.69493L152.022 7.58336C152.092 6.95802 152.389 6.38034 152.858 5.9608C153.327 5.54127 153.934 5.30933 154.564 5.30933C155.193 5.30933 155.8 5.54127 156.269 5.9608C156.738 6.38034 157.036 6.95802 157.106 7.58336L157.118 7.69493C157.14 7.89385 157.14 8.09462 157.118 8.29354L156.931 9.97403L157.31 10.004C157.566 10.0241 157.808 10.1296 157.997 10.3037C158.186 10.4778 158.311 10.7103 158.352 10.9639C158.549 12.166 158.549 13.3922 158.352 14.5943C158.311 14.8478 158.186 15.0802 157.997 15.2542C157.808 15.4281 157.566 15.5336 157.31 15.5537L156.493 15.619C155.852 15.6696 155.205 15.6952 154.564 15.6952ZM154.564 11.962C154.402 11.962 154.244 12.0099 154.11 12.0996C153.976 12.1893 153.871 12.3167 153.81 12.4659C153.748 12.6151 153.732 12.7792 153.763 12.9375C153.795 13.0959 153.872 13.2413 153.986 13.3555C154.101 13.4697 154.246 13.5474 154.404 13.5789C154.563 13.6104 154.727 13.5942 154.876 13.5324C155.025 13.4707 155.153 13.366 155.242 13.2318C155.332 13.0976 155.38 12.9397 155.38 12.7783C155.38 12.5619 155.294 12.3544 155.141 12.2014C154.988 12.0485 154.78 11.9625 154.564 11.9625V11.962ZM154.564 9.86138C155.08 9.86138 155.602 9.87825 156.117 9.91145L156.307 8.20321C156.322 8.06503 156.322 7.92561 156.307 7.78744L156.294 7.67588C156.252 7.28439 156.078 6.91892 155.8 6.6396C155.523 6.36029 155.158 6.18376 154.767 6.13906C154.632 6.12339 154.495 6.12339 154.36 6.13906C153.969 6.18357 153.604 6.36004 153.327 6.63939C153.049 6.91874 152.875 7.28432 152.833 7.67588L152.821 7.78744C152.805 7.92561 152.805 8.06503 152.821 8.20321L153.011 9.91145C153.528 9.87825 154.051 9.86192 154.564 9.86192V9.86138Z" fill="#94A9CB"/>
</g>
<g opacity="0.8">
<path d="M154.5 24.0846C153.856 24.0861 153.236 23.8354 152.774 23.3863L148.154 18.9182C146.685 17.4931 145.517 15.7883 144.718 13.9045C143.918 12.0207 143.504 9.99583 143.5 7.94943V5.61602C143.497 4.99665 143.727 4.39876 144.144 3.94065C144.561 3.48253 145.134 3.19756 145.751 3.1421L146.212 3.0981C148.173 2.90926 150.066 2.28414 151.754 1.26855L152.487 0.834233C153.095 0.468122 153.791 0.274658 154.501 0.274658C155.21 0.274658 155.906 0.468122 156.514 0.834233L157.246 1.26855C158.933 2.28135 160.824 2.90449 162.782 3.09242L163.243 3.13642C163.862 3.19061 164.438 3.47581 164.856 3.93527C165.274 4.39473 165.504 4.99477 165.5 5.61602V7.94943C165.496 9.99573 165.082 12.0205 164.283 13.9043C163.484 15.7882 162.316 17.493 160.847 18.9182L156.227 23.3863C155.765 23.8354 155.145 24.086 154.5 24.0846ZM154.5 2.40403C154.177 2.40406 153.861 2.49241 153.585 2.65952L152.851 3.10093C150.889 4.27756 148.69 5.00107 146.413 5.2186L145.95 5.2626C145.862 5.27108 145.78 5.31198 145.721 5.37732C145.662 5.44267 145.629 5.52777 145.629 5.61602V7.94943C145.633 9.71024 145.99 11.4524 146.677 13.0734C147.365 14.6944 148.37 16.1614 149.633 17.3881L154.253 21.8491C154.319 21.9129 154.407 21.9485 154.499 21.9485C154.591 21.9485 154.679 21.9129 154.746 21.8491L159.366 17.3824C160.628 16.1565 161.633 14.6905 162.321 13.0705C163.009 11.4505 163.366 9.70938 163.371 7.94943V5.61602C163.371 5.52755 163.338 5.44226 163.278 5.37688C163.219 5.3115 163.137 5.27074 163.049 5.2626L162.586 5.2186C160.309 5.00064 158.109 4.27664 156.148 3.09952L155.423 2.6581C155.144 2.49044 154.825 2.40255 154.5 2.40403Z" fill="#BDC8DA"/>
</g>
</svg>
