<svg width="27" height="27" viewBox="0 0 27 27" fill="none" xmlns="http://www.w3.org/2000/svg">
<path d="M18.5354 10.6867C18.588 10.7393 18.6297 10.8016 18.6581 10.8703C18.6866 10.939 18.7012 11.0126 18.7012 11.0869C18.7012 11.1612 18.6866 11.2348 18.6581 11.3035C18.6297 11.3721 18.588 11.4345 18.5354 11.4871L13.2551 16.7674C13.2026 16.82 13.1402 16.8617 13.0715 16.8901C13.0028 16.9186 12.9292 16.9332 12.8549 16.9332C12.7806 16.9332 12.707 16.9186 12.6383 16.8901C12.5697 16.8617 12.5073 16.82 12.4548 16.7674L9.43742 13.7501C9.33129 13.6439 9.27167 13.5 9.27167 13.3499C9.27167 13.1998 9.33129 13.0559 9.43742 12.9497C9.54356 12.8436 9.6875 12.784 9.8376 12.784C9.98769 12.784 10.1316 12.8436 10.2378 12.9497L12.8553 15.5672L17.7358 10.6867C17.8419 10.5808 17.9857 10.5213 18.1356 10.5213C18.2855 10.5213 18.4293 10.5808 18.5354 10.6867Z" fill="#1DA304"/>
<path fill-rule="evenodd" clip-rule="evenodd" d="M13.6154 24.6569C19.9896 24.6569 25.1569 19.4896 25.1569 13.1154C25.1569 6.74115 19.9896 1.57384 13.6154 1.57384C7.24115 1.57384 2.07384 6.74115 2.07384 13.1154C2.07384 19.4896 7.24115 24.6569 13.6154 24.6569ZM13.6154 26.2307C20.8588 26.2307 26.7307 20.3588 26.7307 13.1154C26.7307 5.87195 20.8588 0 13.6154 0C6.37195 0 0.5 5.87195 0.5 13.1154C0.5 20.3588 6.37195 26.2307 13.6154 26.2307Z" fill="#1DA304"/>
</svg>
