<svg width="40" height="40" viewBox="0 0 40 40" fill="none" xmlns="http://www.w3.org/2000/svg">
<circle cx="20" cy="20" r="20" fill="#2F80ED"/>
<path d="M13.3 15.7001V23.2001C13.3 24.3001 14.2001 25.2001 15.3001 25.2001H21.6C22.7 25.2001 23.6 24.3001 23.6 23.2001V13.8C23.6 12.7 22.7 11.8 21.6 11.8H17.2C16.7 11.8 16.2001 12.0001 15.8001 12.4001L13.9001 14.3C13.5001 14.6 13.3 15.1001 13.3 15.7001Z" stroke="white" stroke-width="1.5" stroke-miterlimit="10" stroke-linecap="round" stroke-linejoin="round"/>
<path d="M13.3 15.9001H15.4001C16.5001 15.9001 17.4001 15.0001 17.4001 13.9001V11.8" stroke="white" stroke-width="1.5" stroke-miterlimit="10" stroke-linecap="round" stroke-linejoin="round"/>
<path d="M16.4001 25.2001V26.3001C16.4001 27.4001 17.3001 28.3001 18.4001 28.3001H24.7001C25.8001 28.3001 26.7001 27.4001 26.7001 26.3001V16.9001C26.7001 15.8001 25.8001 14.9001 24.7001 14.9001H23.6001" stroke="white" stroke-width="1.5" stroke-miterlimit="10" stroke-linecap="round" stroke-linejoin="round"/>
</svg>
