<svg width="13" height="13" viewBox="0 0 13 13" fill="none" xmlns="http://www.w3.org/2000/svg">
<path fill-rule="evenodd" clip-rule="evenodd" d="M6.25625 12.75C9.70625 12.75 12.5 9.95 12.5 6.5C12.5 3.05 9.70625 0.249998 6.25625 0.249998C2.8 0.249997 -1.37814e-06 3.05 -1.90555e-06 6.5C-2.43297e-06 9.95 2.8 12.75 6.25625 12.75ZM5.625 9.62531L6.875 9.62531L6.875 5.8753L5.625 5.8753L5.625 9.62531ZM5.625 4.62469L6.875 4.62469L6.875 3.3747L5.625 3.3747L5.625 4.62469ZM11.2502 6.50031C11.2502 3.73781 9.01268 1.50031 6.25018 1.50031C3.48768 1.50031 1.25018 3.73781 1.25018 6.50031C1.25018 9.2628 3.48768 11.5003 6.25018 11.5003C9.01268 11.5003 11.2502 9.26281 11.2502 6.50031Z" fill="#828282"/>
</svg>
