<svg width="40" height="40" viewBox="0 0 40 40" fill="none" xmlns="http://www.w3.org/2000/svg">
<circle cx="20" cy="20" r="20" fill="#94A9CB"/>
<path d="M28.3 14.5999V22.1999C28.3 23.0999 27.4999 23.8999 26.5999 23.8999H23.5999C23.0999 23.8999 22.6 24.1999 22.2 24.5999L21.4 25.6999L20.4 26.9999C20.2 27.2999 19.7999 27.2999 19.5999 26.9999L18.5999 25.6999L17.8 24.5999C17.5 24.1999 17 23.8999 16.4 23.8999H13.4C12.5 23.8999 11.7 23.0999 11.7 22.1999V14.5999C11.7 13.6999 12.5 12.8999 13.4 12.8999H26.4999C27.4999 12.8999 28.3 13.5999 28.3 14.5999Z" stroke="white" stroke-width="1.5" stroke-miterlimit="10" stroke-linecap="round" stroke-linejoin="round"/>
</svg>
