<svg width="40" height="40" viewBox="0 0 40 40" fill="none" xmlns="http://www.w3.org/2000/svg">
<circle cx="20" cy="20" r="20" fill="#1DA304"/>
<path d="M19.1 11.8C15.5 12.2 12.5 15 11.9 18.6C11.6 20.4 11.9 22.1 12.6 23.5C12.8 23.8 12.8 24.2 12.7 24.5C12.5 25.2 12.2 26.5 12 27.4C11.9 27.8 12.2 28.1 12.6 28L15.5 27.3C15.9 27.2 16.2 27.3 16.5 27.4C17.9 28.1 19.6 28.4 21.4 28.1C25 27.5 27.8 24.5 28.2 20.9C28.8 15.6 24.4 11.2 19.1 11.8Z" stroke="white" stroke-width="1.5" stroke-miterlimit="10" stroke-linecap="round" stroke-linejoin="round"/>
<path d="M24.2001 21.723C24.0293 21.6376 22.9189 21.1251 22.748 21.0397C22.5772 20.9543 22.4064 20.9543 22.2355 21.1251C22.0647 21.2959 21.723 21.8084 21.5522 21.9793C21.4668 22.1501 21.2959 22.1501 21.1251 22.0647C20.5272 21.8084 19.9292 21.4668 19.4167 21.0397C18.9896 20.6126 18.5625 20.1001 18.2209 19.5876C18.1355 19.4167 18.2209 19.2459 18.3063 19.1605C18.3917 19.0751 18.4771 18.9042 18.648 18.8188C18.7334 18.7334 18.8188 18.5625 18.8188 18.4771C18.9042 18.3917 18.9042 18.2209 18.8188 18.1355C18.7334 18.05 18.3063 17.025 18.1355 16.5979C18.05 16 17.8792 16 17.7084 16C17.6229 16 17.4521 16 17.2813 16C17.1104 16 16.8542 16.1708 16.7688 16.2563C16.2563 16.7688 16 17.3667 16 18.05C16.0854 18.8188 16.3417 19.5876 16.8542 20.2709C17.7938 21.6376 18.9896 22.748 20.4417 23.4314C20.8688 23.6022 21.2105 23.7731 21.6376 23.8585C22.0647 24.0293 22.4918 24.0293 23.0043 23.9439C23.6022 23.8585 24.1147 23.4314 24.4564 22.9189C24.6272 22.5772 24.6272 22.2355 24.5418 21.8939C24.5418 21.8939 24.371 21.8084 24.2001 21.723Z" fill="white"/>
</svg>
